<svg width="23" height="16" viewBox="0 0 23 16" fill="none" xmlns="http://www.w3.org/2000/svg">
<g id="Group">
<path id="Vector" d="M20.1429 0.47226H1.94097C0.868561 0.47226 0 1.34621 0 2.41323V14.059C0 15.1324 0.874945 16 1.94097 16H20.1429C21.2064 16 22.0839 15.1361 22.0839 14.059V2.41323C22.0839 1.34811 21.2188 0.47226 20.1429 0.47226ZM19.8711 1.76624L12.4144 9.18362C12.0478 9.55025 11.5604 9.75211 11.0419 9.75211C10.5235 9.75211 10.0361 9.55021 9.66826 9.18242L2.21279 1.76624H19.8711ZM1.29398 13.7957V2.67741L6.8856 8.23958L1.29398 13.7957ZM2.21361 14.706L7.80303 9.15214L8.7545 10.0986C9.36551 10.7096 10.1779 11.0461 11.0419 11.0461C11.906 11.0461 12.7184 10.7096 13.3282 10.0998L14.2809 9.15214L19.8703 14.706H2.21361ZM20.7899 13.7957L15.1983 8.23958L20.7899 2.67741V13.7957Z" fill="#262626"/>
</g>
</svg>
