<svg width="18" height="18" viewBox="0 0 18 18" fill="none" xmlns="http://www.w3.org/2000/svg">
<path d="M17.6456 5.20207C17.6041 4.26189 17.4521 3.61559 17.2343 3.0555C17.0096 2.46101 16.6639 1.92877 16.2111 1.4863C15.7686 1.03696 15.2329 0.687779 14.6453 0.466631C14.082 0.24887 13.439 0.0967826 12.4989 0.0553735C11.5517 0.0103696 11.251 0 8.8487 0C6.44641 0 6.14573 0.0103696 5.20207 0.0518478C4.26193 0.0933261 3.61559 0.245482 3.05567 0.463105C2.46101 0.687779 1.92877 1.03343 1.4863 1.4863C1.03696 1.92874 0.687952 2.4645 0.466631 3.05211C0.24887 3.61559 0.0968172 4.25844 0.0553735 5.19854C0.0104041 6.14573 0 6.44641 0 8.8487C0 11.251 0.0104041 11.5517 0.0518478 12.4953C0.0933261 13.4355 0.245482 14.0818 0.463278 14.6419C0.687952 15.2364 1.03696 15.7686 1.4863 16.2111C1.92877 16.6604 2.46454 17.0096 3.05214 17.2308C3.61556 17.4485 4.2584 17.6006 5.19871 17.642C6.14221 17.6836 6.44306 17.6939 8.84534 17.6939C11.2476 17.6939 11.5483 17.6836 12.492 17.642C13.4321 17.6006 14.0785 17.4486 14.6384 17.2308C15.2264 17.0034 15.7605 16.6557 16.2064 16.2098C16.6522 15.764 17 15.23 17.2274 14.6419C17.445 14.0785 17.5972 13.4355 17.6387 12.4953C17.6801 11.5517 17.6905 11.251 17.6905 8.8487C17.6905 6.44641 17.687 6.1457 17.6456 5.20207ZM16.0522 12.4262C16.0141 13.2903 15.869 13.757 15.748 14.068C15.4507 14.8389 14.8389 15.4507 14.068 15.748C13.757 15.869 13.287 16.0141 12.4262 16.052C11.4929 16.0936 11.2131 16.1039 8.85222 16.1039C6.49138 16.1039 6.20798 16.0936 5.27807 16.052C4.41394 16.0141 3.94731 15.869 3.63623 15.748C3.25266 15.6062 2.90351 15.3815 2.62008 15.0877C2.32627 14.8008 2.1016 14.4552 1.95981 14.0716C1.83884 13.7605 1.6937 13.2903 1.65578 12.4297C1.61416 11.4965 1.60393 11.2164 1.60393 8.85558C1.60393 6.49474 1.61416 6.21134 1.65578 5.2816C1.6937 4.41747 1.83884 3.95084 1.95981 3.63975C2.1016 3.25601 2.32627 2.90694 2.6236 2.62343C2.91036 2.32963 3.25601 2.10495 3.63975 1.96334C3.95084 1.84236 4.421 1.69719 5.2816 1.65913C6.21486 1.61765 6.49491 1.60728 8.85558 1.60728C11.2199 1.60728 11.4998 1.61765 12.4297 1.65913C13.2939 1.69722 13.7605 1.84233 14.0716 1.9633C14.4551 2.10495 14.8043 2.32963 15.0877 2.62343C15.3815 2.91036 15.6062 3.25601 15.748 3.63975C15.869 3.95084 16.0141 4.42082 16.0522 5.2816C16.0936 6.21486 16.104 6.49474 16.104 8.85558C16.104 11.2164 16.0937 11.4929 16.0522 12.4262Z" fill="#19C1D1"/>
<path d="M8.84867 4.30338C6.33931 4.30338 4.30334 6.33921 4.30334 8.84871C4.30334 11.3582 6.33931 13.394 8.84867 13.394C11.3581 13.394 13.394 11.3582 13.394 8.84871C13.394 6.33921 11.3581 4.30338 8.84867 4.30338ZM8.84867 11.7971C7.22072 11.7971 5.90019 10.4768 5.90019 8.84871C5.90019 7.22062 7.22072 5.9003 8.84864 5.9003C10.4767 5.9003 11.7971 7.22062 11.7971 8.84871C11.7971 10.4768 10.4767 11.7971 8.84867 11.7971ZM14.635 4.12364C14.635 4.70966 14.1598 5.1848 13.5737 5.1848C12.9877 5.1848 12.5126 4.70966 12.5126 4.12364C12.5126 3.53756 12.9877 3.06256 13.5737 3.06256C14.1598 3.06256 14.635 3.53752 14.635 4.12364Z" fill="#19C1D1"/>
</svg>
