<svg width="19" height="14" viewBox="0 0 19 14" fill="none" xmlns="http://www.w3.org/2000/svg">
<path d="M0.252863 6.28795L6.29838 0.242436C6.46126 0.0851158 6.67942 -0.0019351 6.90586 3.26479e-05C7.13231 0.00200039 7.34892 0.0928292 7.50905 0.252956C7.66918 0.413083 7.76 0.629695 7.76197 0.85614C7.76394 1.08259 7.67689 1.30074 7.51957 1.46363L2.9483 6.0349H18.1364C18.3654 6.0349 18.5851 6.12589 18.747 6.28786C18.909 6.44982 19 6.66949 19 6.89855C19 7.1276 18.909 7.34727 18.747 7.50923C18.5851 7.6712 18.3654 7.76219 18.1364 7.76219H2.9483L7.51957 12.3335C7.60206 12.4131 7.66785 12.5084 7.71311 12.6138C7.75838 12.7192 7.7822 12.8325 7.7832 12.9472C7.78419 13.0618 7.76234 13.1756 7.71892 13.2817C7.67549 13.3878 7.61136 13.4843 7.53027 13.5654C7.44918 13.6465 7.35276 13.7106 7.24662 13.754C7.14048 13.7974 7.02676 13.8193 6.91208 13.8183C6.79741 13.8173 6.68408 13.7935 6.57871 13.7482C6.47334 13.7029 6.37805 13.6371 6.29838 13.5547L0.252863 7.50914C0.0909538 7.34718 0 7.12755 0 6.89855C0 6.66954 0.0909538 6.44991 0.252863 6.28795Z" fill="#FAFAFA"/>
</svg>
