<svg width="28" height="11" viewBox="0 0 28 11" fill="none" xmlns="http://www.w3.org/2000/svg">
<g id="Group">
<path id="Vector" d="M27.4213 5.64437H0.577291C0.257977 5.64437 0 5.38639 0 5.06708C0 4.74776 0.257977 4.48979 0.577291 4.48979H26.0268L22.5234 0.986355C22.2979 0.760851 22.2979 0.394632 22.5234 0.169128C22.7489 -0.056376 23.1151 -0.056376 23.3406 0.169128L27.8308 4.65937C27.9968 4.82534 28.0455 5.07249 27.9553 5.28897C27.8651 5.50365 27.654 5.64437 27.4213 5.64437Z" fill="#19C1D1"/>
<path id="Vector_2" d="M22.9257 10.1401C22.7777 10.1401 22.6298 10.0841 22.5179 9.97047C22.2924 9.74497 22.2924 9.37875 22.5179 9.15324L27.0136 4.65759C27.2391 4.43209 27.6053 4.43209 27.8308 4.65759C28.0563 4.8831 28.0563 5.24932 27.8308 5.47482L23.3352 9.97047C23.2215 10.0841 23.0736 10.1401 22.9257 10.1401Z" fill="#19C1D1"/>
</g>
</svg>
