<svg width="45" height="45" viewBox="0 0 45 45" fill="none" xmlns="http://www.w3.org/2000/svg">
<path d="M34.615 23.7492C34.328 26.5297 33.0951 29.1277 31.1222 31.1092C29.1493 33.0908 26.5559 34.336 23.775 34.6369C23.719 34.6362 23.6634 34.6468 23.6116 34.6679C23.5597 34.689 23.5126 34.7202 23.473 34.7598C23.4334 34.7994 23.4021 34.8465 23.381 34.8983C23.3599 34.9501 23.3493 35.0057 23.35 35.0616V44.1506C23.35 44.3759 23.2604 44.5919 23.101 44.7512C22.9416 44.9105 22.7254 45 22.5 45C22.2746 45 22.0584 44.9105 21.899 44.7512C21.7396 44.5919 21.65 44.3759 21.65 44.1506V40.8528C21.6419 40.7428 21.5945 40.6394 21.5165 40.5615C21.4385 40.4835 21.335 40.4361 21.225 40.428C17.4446 40.1223 13.8587 38.6258 10.9835 36.1539C8.10828 33.6819 6.09205 30.3621 5.225 26.6722C5.19273 26.5629 5.1828 26.4482 5.19581 26.335C5.20882 26.2217 5.24451 26.1123 5.30074 26.0131C5.35697 25.9139 5.4326 25.8271 5.52312 25.7577C5.61364 25.6884 5.7172 25.6379 5.82764 25.6094C5.93807 25.5809 6.05312 25.5749 6.16592 25.5918C6.27873 25.6086 6.38699 25.648 6.48425 25.7075C6.58151 25.7671 6.66579 25.8455 6.73206 25.9383C6.79834 26.0311 6.84524 26.1362 6.87 26.2475C7.64083 29.5596 9.43821 32.5441 12.006 34.7754C14.5737 37.0068 17.7808 38.3712 21.17 38.6742C21.28 38.7292 21.385 38.6742 21.49 38.5693C21.5455 38.538 21.5904 38.4908 21.6189 38.4338C21.6474 38.3769 21.6582 38.3127 21.65 38.2495V35.0616C21.6507 35.0057 21.6401 34.9501 21.619 34.8983C21.5979 34.8465 21.5666 34.7994 21.527 34.7598C21.4874 34.7202 21.4403 34.689 21.3884 34.6679C21.3366 34.6468 21.281 34.6362 21.225 34.6369C18.4574 34.3288 15.8747 33.0964 13.895 31.1392C11.9157 29.1513 10.68 26.544 10.395 23.7542C10.3788 23.6521 10.3275 23.5588 10.2499 23.4904C10.1724 23.422 10.0734 23.3828 9.97 23.3794H0.875C0.642936 23.3794 0.420376 23.2873 0.256282 23.1233C0.0921873 22.9593 0 22.7369 0 22.505C0 22.2731 0.0921873 22.0507 0.256282 21.8867C0.420376 21.7227 0.642936 21.6306 0.875 21.6306H4.33C4.4331 21.6263 4.53158 21.5867 4.60896 21.5185C4.68633 21.4502 4.73789 21.3575 4.755 21.2558C4.98188 17.4835 6.38443 13.8768 8.76598 10.9412C11.1475 8.00571 14.3887 5.8886 18.035 4.88674C18.2558 4.84486 18.4843 4.88899 18.6736 5.0101C18.8629 5.1312 18.9986 5.32009 19.053 5.53803C19.1073 5.75597 19.0762 5.98643 18.9659 6.18215C18.8557 6.37787 18.6747 6.52402 18.46 6.59061C15.1978 7.46968 12.2918 9.34485 10.1476 11.9543C8.00344 14.5637 6.72822 17.7772 6.5 21.1459C6.4859 21.208 6.48646 21.2724 6.50164 21.3343C6.51681 21.3961 6.54619 21.4535 6.58743 21.502C6.62867 21.5505 6.68065 21.5887 6.73925 21.6136C6.79784 21.6385 6.86144 21.6495 6.925 21.6456H9.95C10.0534 21.6422 10.1524 21.6029 10.2299 21.5346C10.3075 21.4662 10.3588 21.3729 10.375 21.2708C10.6581 18.4852 11.8906 15.8814 13.8658 13.8956C15.8411 11.9098 18.4392 10.6627 21.225 10.3631C21.281 10.3638 21.3366 10.3532 21.3884 10.3321C21.4403 10.311 21.4874 10.2798 21.527 10.2402C21.5666 10.2006 21.5979 10.1535 21.619 10.1017C21.6401 10.0499 21.6507 9.99434 21.65 9.93838V0.849434C21.65 0.62415 21.7396 0.408093 21.899 0.248793C22.0584 0.0894937 22.2746 0 22.5 0C22.7254 0 22.9416 0.0894937 23.101 0.248793C23.2604 0.408093 23.35 0.62415 23.35 0.849434V11.1576C23.3557 11.2778 23.3362 11.398 23.2927 11.5103C23.2493 11.6226 23.1828 11.7246 23.0976 11.8097C23.0124 11.8949 22.9104 11.9613 22.798 12.0047C22.6856 12.0482 22.5654 12.0677 22.445 12.062C13.2 12.062 8.58 23.3744 15.115 29.9101C21.65 36.4457 32.805 31.7688 32.965 22.5C32.9637 22.3881 32.9847 22.277 33.027 22.1734C33.0692 22.0697 33.1318 21.9755 33.211 21.8964C33.2902 21.8172 33.3844 21.7547 33.4881 21.7125C33.5919 21.6703 33.703 21.6492 33.815 21.6506H44.125C44.3571 21.6506 44.5796 21.7427 44.7437 21.9067C44.9078 22.0707 45 22.2931 45 22.525C45 22.7569 44.9078 22.9793 44.7437 23.1433C44.5796 23.3073 44.3571 23.3994 44.125 23.3994H40.725C40.6195 23.3952 40.5164 23.4318 40.4373 23.5016C40.3581 23.5714 40.3089 23.669 40.3 23.7742C40.0241 27.57 38.5551 31.1816 36.1029 34.0935C33.6506 37.0053 30.3405 39.0685 26.645 39.9883C25.53 40.2532 25.145 38.5543 26.27 38.2895C29.5702 37.4695 32.5299 35.6355 34.732 33.0458C36.9341 30.4561 38.2677 27.2412 38.545 23.8541C38.5591 23.792 38.5585 23.7275 38.5434 23.6657C38.5282 23.6039 38.4988 23.5465 38.4576 23.498C38.4163 23.4495 38.3643 23.4113 38.3058 23.3864C38.2472 23.3615 38.1836 23.3505 38.12 23.3544H35.04C34.9366 23.3578 34.8376 23.3971 34.7601 23.4654C34.6825 23.5338 34.6312 23.6271 34.615 23.7292V23.7492ZM41.5 9.61859L35.355 15.7245C35.2048 15.8874 34.9964 15.9844 34.775 15.9943H30.68C30.5682 16.0041 30.4603 16.0401 30.365 16.0993L23.085 23.4294C22.9213 23.5822 22.7047 23.6656 22.4807 23.6621C22.2567 23.6585 22.0428 23.5682 21.8841 23.4102C21.7253 23.2523 21.6341 23.0389 21.6296 22.8151C21.6251 22.5912 21.7077 22.3744 21.86 22.2102L29.14 14.8751C29.189 14.8506 29.23 14.8127 29.2583 14.7658C29.2866 14.7189 29.3011 14.665 29.3 14.6103V10.508C29.299 10.3898 29.3219 10.2727 29.3675 10.1636C29.413 10.0545 29.4802 9.9558 29.565 9.87342L35.675 3.77249C35.793 3.64502 35.9466 3.55601 36.116 3.51706C36.2853 3.47811 36.4624 3.49102 36.6243 3.55411C36.7862 3.6172 36.9253 3.72755 37.0235 3.87077C37.1217 4.014 37.1745 4.18346 37.175 4.3571V7.70486C37.1821 7.81519 37.2291 7.91916 37.3073 7.99733C37.3856 8.0755 37.4896 8.12252 37.6 8.12958H40.895C41.0708 8.12498 41.2438 8.17338 41.3916 8.2685C41.5395 8.36361 41.6552 8.50102 41.7237 8.66281C41.7922 8.82461 41.8104 9.00328 41.7759 9.17555C41.7413 9.34781 41.6556 9.50568 41.53 9.62858L41.5 9.61859ZM34.5 14.1156L38.06 10.558C38.1219 10.5009 38.1656 10.4269 38.1857 10.3451C38.2059 10.2634 38.2016 10.1776 38.1733 10.0983C38.1451 10.019 38.0942 9.94978 38.027 9.89913C37.9597 9.84849 37.879 9.8187 37.795 9.81346H36.295C36.0628 9.81888 35.8377 9.73286 35.6684 9.57394C35.4991 9.41503 35.3991 9.19597 35.39 8.96402V7.50999C35.3896 7.42394 35.3639 7.3399 35.3162 7.26829C35.2684 7.19668 35.2007 7.14064 35.1214 7.10713C35.042 7.07362 34.9546 7.0641 34.87 7.07975C34.7853 7.09541 34.7071 7.13555 34.645 7.1952L31.145 10.7528C31.0516 10.8342 30.9941 10.9491 30.985 11.0726V13.8358C30.9843 13.8917 30.9949 13.9473 31.016 13.9991C31.0371 14.0509 31.0684 14.098 31.108 14.1376C31.1476 14.1772 31.1947 14.2084 31.2466 14.2295C31.2984 14.2506 31.354 14.2612 31.41 14.2605H34.225C34.335 14.2605 34.44 14.2605 34.49 14.1506L34.5 14.1156ZM29.72 22.51C29.722 23.9386 29.2998 25.3358 28.5069 26.5246C27.714 27.7133 26.586 28.6403 25.2657 29.1882C23.9454 29.736 22.4921 29.8802 21.0898 29.6023C19.6875 29.3244 18.3992 28.6371 17.3879 27.6272C16.3767 26.6173 15.688 25.3304 15.409 23.9292C15.1299 22.528 15.2731 21.0756 15.8205 19.7558C16.3678 18.436 17.2946 17.3081 18.4836 16.5149C19.6726 15.7217 21.0704 15.2988 22.5 15.2998C22.7148 15.3163 22.9155 15.4131 23.0619 15.5711C23.2083 15.7291 23.2897 15.9364 23.2897 16.1517C23.2897 16.367 23.2083 16.5744 23.0619 16.7324C22.9155 16.8903 22.7148 16.9872 22.5 17.0037C21.0413 17.0037 19.6424 17.5827 18.6109 18.6135C17.5795 19.6443 17 21.0423 17 22.5C17 23.9577 17.5795 25.3557 18.6109 26.3865C19.6424 27.4173 21.0413 27.9963 22.5 27.9963C25.69 27.9963 27.815 25.6079 27.97 22.5C27.965 22.3794 27.9849 22.2592 28.0284 22.1466C28.072 22.0341 28.1382 21.9317 28.223 21.8458C28.3078 21.76 28.4094 21.6925 28.5215 21.6475C28.6335 21.6026 28.7536 21.5812 28.8743 21.5846C28.995 21.588 29.1137 21.6163 29.223 21.6675C29.3323 21.7187 29.4299 21.7919 29.5097 21.8825C29.5895 21.973 29.6498 22.079 29.6868 22.1938C29.7238 22.3087 29.7368 22.4299 29.725 22.55L29.72 22.51Z" fill="#FAFAFA"/>
</svg>
