<svg width="138" height="138" viewBox="0 0 138 138" fill="none" xmlns="http://www.w3.org/2000/svg">
<path d="M69 0C30.8924 0 0 30.8924 0 69C0 107.108 30.8924 138 69 138C107.108 138 138 107.108 138 69C137.96 30.9094 107.091 0.0407185 69 0ZM98.0586 71.1985C97.5809 72.1568 96.8042 72.9335 95.8459 73.4112V73.4357L56.4174 93.1501C53.9824 94.3668 51.0223 93.3794 49.8054 90.9444C49.4594 90.2522 49.2813 89.4883 49.2856 88.7144V49.2859C49.2844 46.5638 51.4899 44.3563 54.212 44.3549C54.9775 44.3545 55.7326 44.5325 56.4174 44.8747L95.8459 64.5891C98.2821 65.8032 99.2729 68.7623 98.0586 71.1985Z" fill="#19C1D1" fill-opacity="0.7"/>
</svg>
