<svg width="69" height="52" viewBox="0 0 69 52" fill="none" xmlns="http://www.w3.org/2000/svg">
<g id="Group">
<path id="Vector" d="M6.11765 47.7941C2.29412 43.5882 0 39 0 31.3529C0 17.9706 9.55883 6.11765 22.9412 0L26.3824 4.97059C13.7647 11.8529 11.0882 20.6471 10.3235 26.3824C12.2353 25.2353 14.9118 24.8529 17.5882 25.2353C24.4706 26 29.8235 31.3529 29.8235 38.6176C29.8235 42.0588 28.2941 45.5 26 48.1765C23.3235 50.8529 20.2647 52 16.4412 52C12.2353 52 8.41176 50.0882 6.11765 47.7941ZM44.3529 47.7941C40.5294 43.5882 38.2353 39 38.2353 31.3529C38.2353 17.9706 47.7941 6.11765 61.1765 0L64.6176 4.97059C52 11.8529 49.3235 20.6471 48.5588 26.3824C50.4706 25.2353 53.1471 24.8529 55.8235 25.2353C62.7059 26 68.0588 31.3529 68.0588 38.6176C68.0588 42.0588 66.5294 45.5 64.2353 48.1765C61.9412 50.8529 58.5 52 54.6765 52C50.4706 52 46.6471 50.0882 44.3529 47.7941Z" fill="#19C1D1"/>
</g>
</svg>
