<svg width="19" height="14" viewBox="0 0 19 14" fill="none" xmlns="http://www.w3.org/2000/svg">
<path d="M18.7471 6.37062L12.7016 0.245623C12.5387 0.0862349 12.3206 -0.00196054 12.0941 3.30772e-05C11.8677 0.00202669 11.6511 0.0940497 11.491 0.256282C11.3308 0.418514 11.24 0.637975 11.238 0.867397C11.2361 1.09682 11.3231 1.31785 11.4804 1.48287L16.0517 6.11425H0.863645C0.634592 6.11425 0.41492 6.20644 0.252956 6.37053C0.0909908 6.53462 0 6.75718 0 6.98925C0 7.22131 0.0909908 7.44387 0.252956 7.60797C0.41492 7.77206 0.634592 7.86425 0.863645 7.86425H16.0517L11.4804 12.4956C11.3979 12.5763 11.3321 12.6729 11.2869 12.7796C11.2416 12.8864 11.2178 13.0012 11.2168 13.1174C11.2158 13.2336 11.2377 13.3488 11.2811 13.4563C11.3245 13.5639 11.3886 13.6616 11.4697 13.7437C11.5508 13.8259 11.6472 13.8908 11.7534 13.9348C11.8595 13.9788 11.9732 14.001 12.0879 14C12.2026 13.999 12.3159 13.9748 12.4213 13.929C12.5267 13.8831 12.622 13.8164 12.7016 13.7329L18.7471 7.60787C18.909 7.44379 19 7.22127 19 6.98925C19 6.75723 18.909 6.53471 18.7471 6.37062Z" fill="#FAFAFA"/>
</svg>
