<svg width="45" height="45" viewBox="0 0 45 45" fill="none" xmlns="http://www.w3.org/2000/svg">
<path d="M44.8201 32.8358C44.5511 32.0215 43.9877 31.3369 43.2405 30.9162C42.4932 30.4954 41.6158 30.3688 40.7801 30.561L29.9686 33.0173C29.8367 32.0186 29.3217 31.1103 28.5324 30.4845L19.7616 23.535C18.3027 22.3812 16.4978 21.7524 14.6378 21.75H8.99958C8.99898 21.1534 8.76175 20.5815 8.33994 20.1597C7.91813 19.7378 7.34621 19.5006 6.74968 19.5H0.749965C0.551062 19.5 0.360305 19.579 0.21966 19.7197C0.0790139 19.8603 0 20.0511 0 20.25C0 20.4489 0.0790139 20.6397 0.21966 20.7803C0.360305 20.921 0.551062 21 0.749965 21H6.74968C6.94859 21 7.13934 21.079 7.27999 21.2197C7.42063 21.3603 7.49965 21.5511 7.49965 21.75V38.25C7.49965 38.4489 7.42063 38.6397 7.27999 38.7803C7.13934 38.921 6.94859 39 6.74968 39H0.749965C0.551062 39 0.360305 39.079 0.21966 39.2197C0.0790139 39.3603 0 39.5511 0 39.75C0 39.9489 0.0790139 40.1397 0.21966 40.2803C0.360305 40.421 0.551062 40.5 0.749965 40.5H6.74968C7.34621 40.4994 7.91813 40.2622 8.33994 39.8403C8.76175 39.4185 8.99898 38.8466 8.99958 38.25V37.9628L20.9495 43.938C22.3785 44.6525 23.9572 45.0164 25.5548 44.9994C27.1524 44.9825 28.723 44.5852 30.1366 43.8405L43.1545 36.9825C43.8802 36.6027 44.4467 35.9764 44.752 35.2163C45.0574 34.4562 45.0815 33.6121 44.8201 32.8358ZM42.4555 35.6558L29.4376 42.5138C28.2311 43.1359 26.8959 43.4674 25.5386 43.4817C24.1812 43.496 22.8393 43.1928 21.62 42.5963L8.99958 36.285V23.25H14.6378C16.1596 23.2519 17.6364 23.7663 18.8301 24.7103L27.601 31.6613C27.8539 31.8616 28.0643 32.1106 28.2195 32.3935C28.3748 32.6764 28.4719 32.9875 28.5051 33.3085C28.5383 33.6296 28.5069 33.954 28.4128 34.2627C28.3187 34.5714 28.1638 34.8581 27.9572 35.106C27.5974 35.5364 27.0996 35.8287 26.5485 35.9332C25.9974 36.0377 25.4271 35.9478 24.9348 35.679L16.11 30.8423C16.0236 30.7949 15.9288 30.765 15.8308 30.7543C15.7329 30.7436 15.6338 30.7522 15.5393 30.7798C15.4447 30.8074 15.3565 30.8533 15.2797 30.915C15.2028 30.9767 15.1389 31.0529 15.0915 31.1393C15.0442 31.2256 15.0143 31.3205 15.0036 31.4184C14.9928 31.5164 15.0015 31.6154 15.0291 31.71C15.0567 31.8046 15.1026 31.8928 15.1643 31.9696C15.226 32.0465 15.3022 32.1104 15.3885 32.1578L24.2149 36.9953C24.7342 37.2824 25.3121 37.4472 25.9048 37.4773C26.4974 37.5073 27.0891 37.4018 27.6348 37.1687C28.1805 36.9356 28.6658 36.5811 29.0538 36.1322C29.4419 35.6833 29.7224 35.1517 29.8741 34.578L41.1123 32.0235C41.5744 31.9185 42.0589 31.985 42.4755 32.2108C42.8921 32.4365 43.2124 32.8061 43.3768 33.2505C43.5412 33.695 43.5383 34.184 43.3688 34.6265C43.1993 35.0691 42.8747 35.4349 42.4555 35.6558ZM30.936 26.7458C31.0064 26.8256 31.093 26.8895 31.19 26.9333C31.2869 26.977 31.3921 26.9997 31.4985 26.9997C31.6049 26.9997 31.7101 26.977 31.8071 26.9333C31.9041 26.8895 31.9906 26.8256 32.061 26.7458L43.3105 13.9958C43.4225 13.8687 43.4882 13.7075 43.4969 13.5384C43.5056 13.3692 43.4568 13.2021 43.3585 13.0643L39.6086 7.81425C39.5392 7.71714 39.4476 7.63797 39.3414 7.58332C39.2352 7.52868 39.1176 7.50011 38.9982 7.5H23.9989C23.8795 7.50011 23.7618 7.52868 23.6556 7.58332C23.5495 7.63797 23.4579 7.71714 23.3884 7.81425L19.6386 13.0643C19.5402 13.2021 19.4915 13.3692 19.5002 13.5384C19.5089 13.7075 19.5746 13.8687 19.6866 13.9958L30.936 26.7458ZM28.7514 14.25H34.2456L31.4985 23.592L28.7514 14.25ZM35.8093 14.25H41.0861L33.1717 23.22L35.8093 14.25ZM29.2059 12.75L31.4985 9.54L33.7912 12.75H29.2059ZM32.9557 9H37.541L35.2483 12.21L32.9557 9ZM27.7487 12.21L25.4561 9H30.0413L27.7487 12.21ZM26.2915 12.75H21.7062L23.9989 9.54L26.2915 12.75ZM27.1877 14.25L29.8253 23.22L21.911 14.25H27.1877ZM41.2908 12.75H36.7055L38.9982 9.54L41.2908 12.75ZM30.7486 4.5V0.75C30.7486 0.551088 30.8276 0.360322 30.9682 0.21967C31.1089 0.0790176 31.2996 0 31.4985 0C31.6974 0 31.8882 0.0790176 32.0288 0.21967C32.1695 0.360322 32.2485 0.551088 32.2485 0.75V4.5C32.2485 4.69891 32.1695 4.88968 32.0288 5.03033C31.8882 5.17098 31.6974 5.25 31.4985 5.25C31.2996 5.25 31.1089 5.17098 30.9682 5.03033C30.8276 4.88968 30.7486 4.69891 30.7486 4.5ZM23.3989 2.7C23.2796 2.54087 23.2283 2.34085 23.2564 2.14393C23.2846 1.94702 23.3898 1.76935 23.5489 1.65C23.708 1.53065 23.908 1.47941 24.1049 1.50754C24.3018 1.53567 24.4795 1.64087 24.5988 1.8L26.8487 4.8C26.9078 4.87879 26.9508 4.96845 26.9753 5.06386C26.9997 5.15927 27.0051 5.25856 26.9912 5.35607C26.9773 5.45357 26.9443 5.54737 26.8941 5.63212C26.8439 5.71687 26.7775 5.79091 26.6987 5.85C26.62 5.9091 26.5303 5.95209 26.4349 5.97654C26.3395 6.00098 26.2402 6.00639 26.1427 5.99246C26.0452 5.97853 25.9514 5.94554 25.8667 5.89536C25.7819 5.84518 25.7079 5.77879 25.6488 5.7L23.3989 2.7ZM36.2983 5.85C36.1392 5.73065 36.034 5.55298 36.0058 5.35607C35.9777 5.15915 36.029 4.95913 36.1483 4.8L38.3982 1.8C38.4573 1.72121 38.5313 1.65482 38.6161 1.60464C38.7008 1.55446 38.7946 1.52147 38.8921 1.50754C38.9896 1.49361 39.0889 1.49902 39.1843 1.52346C39.2797 1.54791 39.3694 1.59091 39.4481 1.65C39.5269 1.70909 39.5933 1.78313 39.6435 1.86788C39.6937 1.95263 39.7267 2.04643 39.7406 2.14393C39.7545 2.24144 39.7491 2.34073 39.7247 2.43614C39.7002 2.53155 39.6572 2.62121 39.5981 2.7L37.3482 5.7C37.2289 5.85913 37.0512 5.96433 36.8543 5.99246C36.6574 6.02059 36.4574 5.96935 36.2983 5.85Z" fill="#FAFAFA"/>
</svg>
