<svg width="45" height="45" viewBox="0 0 45 45" fill="none" xmlns="http://www.w3.org/2000/svg">
<path d="M39.2161 7.15728L37.0707 2.90936C36.9908 2.75515 36.8533 2.63869 36.688 2.58527C36.5227 2.53185 36.343 2.5458 36.188 2.62408C36.0329 2.70235 35.915 2.83864 35.8599 3.00332C35.8048 3.168 35.8169 3.34778 35.8936 3.50358L36.6465 4.99421C32.6547 1.75904 27.7159 0 22.5059 0C16.4943 0 10.8427 2.34044 6.59185 6.59021C2.34102 10.84 0 16.4902 0 22.5003C0 28.5103 2.34102 34.1605 6.59185 38.4103C6.72055 38.539 6.88935 38.6034 7.05805 38.6034C7.22675 38.6034 7.39555 38.5391 7.52425 38.4103C7.64788 38.2867 7.71734 38.119 7.71734 37.9442C7.71734 37.7694 7.64788 37.6018 7.52425 37.4781C3.52265 33.4774 1.31869 28.1582 1.31869 22.5003C1.31869 16.8423 3.52256 11.5231 7.52425 7.52238C11.526 3.5216 16.8466 1.31836 22.5059 1.31836C27.4209 1.31836 32.0799 2.98116 35.8418 6.03914L34.1926 5.60487C34.0235 5.56034 33.8436 5.58479 33.6925 5.67285C33.5414 5.76091 33.4315 5.90536 33.387 6.07443C33.3424 6.2435 33.3669 6.42333 33.455 6.57437C33.5431 6.72541 33.6876 6.83528 33.8567 6.87981L38.4595 8.09183C38.5823 8.12411 38.7119 8.12025 38.8325 8.08071C38.9532 8.04117 39.0599 7.96764 39.1398 7.86895C39.2197 7.77026 39.2694 7.65061 39.2829 7.52436C39.2965 7.39812 39.2733 7.27066 39.2161 7.15728ZM19.5717 43.4806C19.1201 43.4181 18.6707 43.341 18.2242 43.2495C18.0541 43.2175 17.8784 43.2537 17.7348 43.3501C17.5912 43.4465 17.4912 43.5955 17.4564 43.7649C17.4217 43.9344 17.4549 44.1107 17.5489 44.2558C17.643 44.401 17.7903 44.5034 17.9592 44.5409C18.4336 44.6382 18.9111 44.7201 19.3908 44.7865C19.5619 44.8061 19.7339 44.758 19.87 44.6525C20.0061 44.547 20.0955 44.3925 20.1191 44.2219C20.1428 44.0513 20.0987 43.8783 19.9964 43.7398C19.8941 43.6013 19.7417 43.5083 19.5717 43.4806ZM43.8615 15.3808C43.7085 14.9217 43.5405 14.4677 43.358 14.0195C43.3253 13.9393 43.2772 13.8664 43.2163 13.8048C43.1555 13.7432 43.0831 13.6942 43.0033 13.6606C42.8421 13.5927 42.6606 13.5917 42.4986 13.6576C42.4184 13.6902 42.3455 13.7384 42.2839 13.7992C42.2223 13.86 42.1733 13.9324 42.1396 14.0122C42.0718 14.1733 42.0707 14.3548 42.1366 14.5167C42.3084 14.9384 42.4664 15.3656 42.6105 15.7975C42.6543 15.9288 42.7382 16.043 42.8505 16.1239C42.9627 16.2048 43.0976 16.2484 43.236 16.2485C43.3405 16.2485 43.4435 16.2237 43.5365 16.1761C43.6295 16.1285 43.7099 16.0595 43.771 15.9748C43.8321 15.89 43.8721 15.792 43.8879 15.6887C43.9036 15.5854 43.8946 15.4799 43.8615 15.3808ZM24.7089 44.2415C24.6836 43.8782 24.3678 43.6053 24.0053 43.6299C23.5535 43.6614 23.0939 43.6789 22.6394 43.6816C22.4645 43.6821 22.297 43.7521 22.1737 43.8761C22.0504 44.0001 21.9815 44.1679 21.982 44.3428C21.9825 44.5176 22.0525 44.685 22.1765 44.8083C22.3005 44.9315 22.4684 45.0005 22.6433 45H22.6473C23.131 44.997 23.6146 44.9787 24.0972 44.9451C24.1835 44.939 24.2679 44.916 24.3454 44.8774C24.4229 44.8388 24.492 44.7853 24.5488 44.72C24.6056 44.6546 24.649 44.5787 24.6765 44.4967C24.7039 44.4146 24.715 44.3279 24.7089 44.2415ZM42.4506 31.4506C42.2933 31.3742 42.1121 31.3633 41.9468 31.4203C41.7816 31.4774 41.6457 31.5978 41.5692 31.755C41.3697 32.1648 41.157 32.5682 40.9314 32.9643C40.8471 33.1161 40.8261 33.2951 40.873 33.4623C40.9198 33.6295 41.0308 33.7714 41.1817 33.8573C41.3327 33.9432 41.5114 33.9661 41.6791 33.921C41.8469 33.876 41.99 33.7666 42.0775 33.6166C42.3171 33.1957 42.5431 32.7671 42.7551 32.3317C42.8315 32.1745 42.8424 31.9933 42.7853 31.8281C42.7282 31.6629 42.6078 31.5271 42.4506 31.4506ZM29.1861 43.3118C29.1622 43.2286 29.1222 43.1509 29.0682 43.0831C29.0143 43.0154 28.9476 42.9589 28.8718 42.917C28.796 42.8751 28.7127 42.8485 28.6267 42.8388C28.5406 42.8291 28.4535 42.8364 28.3703 42.8604C27.9326 42.9861 27.491 43.0976 27.0461 43.1947C26.8873 43.2294 26.7469 43.3215 26.6519 43.4534C26.5569 43.5852 26.5139 43.7475 26.5312 43.9091C26.5486 44.0707 26.625 44.2202 26.7458 44.3289C26.8667 44.4376 27.0234 44.4978 27.186 44.4981C27.2334 44.4981 27.2808 44.4929 27.3271 44.4828C27.8 44.3795 28.2694 44.261 28.7345 44.1274C28.9026 44.0791 29.0446 43.966 29.1293 43.8131C29.2139 43.6601 29.2344 43.4798 29.1861 43.3118ZM44.8719 19.9798C44.8183 19.4991 44.7492 19.0202 44.6647 18.5439C44.6316 18.3742 44.5331 18.2243 44.3905 18.1266C44.2479 18.0288 44.0725 17.9909 43.9023 18.0211C43.732 18.0513 43.5804 18.1472 43.4802 18.2881C43.3799 18.4289 43.3391 18.6035 43.3663 18.7742C43.4458 19.2225 43.5109 19.6732 43.5613 20.1257C43.5807 20.2995 43.6683 20.4584 43.8049 20.5676C43.9414 20.6768 44.1158 20.7273 44.2896 20.7079C44.4634 20.6886 44.6224 20.601 44.7316 20.4644C44.8408 20.3279 44.8913 20.1536 44.8719 19.9798ZM11.2829 40.4698C10.8967 40.228 10.5182 39.9739 10.1482 39.7079C10.0061 39.6092 9.83088 39.5703 9.66036 39.5996C9.48983 39.6289 9.33765 39.724 9.23662 39.8644C9.13559 40.0048 9.0938 40.1793 9.12028 40.3502C9.14676 40.5212 9.23937 40.6749 9.37815 40.7782C9.77112 41.0606 10.173 41.3305 10.5833 41.5873C10.6566 41.6333 10.7384 41.6644 10.8238 41.6787C10.9092 41.6931 10.9966 41.6906 11.081 41.6711C11.1654 41.6517 11.2451 41.6159 11.3156 41.5656C11.3862 41.5154 11.4461 41.4517 11.492 41.3783C11.5379 41.3049 11.569 41.2232 11.5833 41.1378C11.5977 41.0525 11.5951 40.9651 11.5757 40.8807C11.5563 40.7964 11.5204 40.7167 11.4702 40.6461C11.42 40.5756 11.3563 40.5157 11.2829 40.4698ZM15.2678 42.414C14.8395 42.2583 14.4164 42.0889 13.9992 41.9058C13.9199 41.871 13.8345 41.8521 13.748 41.8503C13.6614 41.8485 13.5753 41.8637 13.4946 41.8952C13.4139 41.9266 13.3403 41.9737 13.2778 42.0336C13.2153 42.0935 13.1652 42.1652 13.1304 42.2444C13.0601 42.4045 13.0563 42.586 13.1199 42.7489C13.1834 42.9117 13.309 43.0427 13.4692 43.113C13.9126 43.3075 14.3622 43.4876 14.8173 43.6531C14.8895 43.6794 14.9657 43.6929 15.0425 43.6929C15.1977 43.693 15.3479 43.6384 15.4667 43.5388C15.5856 43.4391 15.6655 43.3008 15.6924 43.148C15.7193 42.9953 15.6915 42.8379 15.6138 42.7037C15.5361 42.5694 15.4136 42.4668 15.2678 42.414ZM40.1469 35.4029C40.009 35.2953 39.8341 35.247 39.6605 35.2684C39.487 35.2898 39.3291 35.3793 39.2215 35.5171C38.9411 35.8764 38.6493 36.2266 38.3465 36.5672C38.2883 36.6318 38.2435 36.7072 38.2146 36.7892C38.1857 36.8712 38.1733 36.9581 38.1782 37.0449C38.183 37.1317 38.2049 37.2167 38.2428 37.2949C38.2806 37.3732 38.3335 37.4432 38.3985 37.501C38.4635 37.5587 38.5393 37.6031 38.6215 37.6314C38.7037 37.6598 38.7907 37.6716 38.8774 37.6662C38.9642 37.6608 39.0491 37.6383 39.1271 37.6C39.2052 37.5616 39.2749 37.5083 39.3322 37.4429C39.6526 37.0825 39.9652 36.7074 40.2613 36.3279C40.3688 36.1901 40.4172 36.0152 40.3957 35.8417C40.3743 35.6682 40.2848 35.5104 40.1469 35.4029ZM43.8762 27.1046C43.7064 27.0627 43.527 27.09 43.3773 27.1805C43.2277 27.2709 43.1201 27.4171 43.0782 27.5868C42.9692 28.0289 42.8459 28.4673 42.7085 28.9014C42.6818 28.9841 42.6717 29.0712 42.6788 29.1578C42.6859 29.2444 42.71 29.3287 42.7499 29.406C42.7897 29.4832 42.8444 29.5518 42.9108 29.6078C42.9772 29.6638 43.054 29.7062 43.1369 29.7324C43.2197 29.7586 43.307 29.7682 43.3935 29.7606C43.4801 29.753 43.5643 29.7284 43.6413 29.6882C43.7183 29.6479 43.7866 29.5929 43.8423 29.5261C43.898 29.4594 43.9399 29.3824 43.9656 29.2994C44.1117 28.8381 44.2428 28.3722 44.3586 27.9024C44.4005 27.7326 44.3731 27.5532 44.2827 27.4036C44.1922 27.254 44.046 27.1464 43.8762 27.1046ZM33.3682 41.466C33.3274 41.3896 33.272 41.322 33.2051 41.2671C33.1381 41.2122 33.0611 41.1709 32.9782 41.1458C32.8953 41.1206 32.8083 41.112 32.7221 41.1205C32.636 41.129 32.5523 41.1543 32.4759 41.1951C32.0746 41.4094 31.6665 41.6108 31.2523 41.7988C31.173 41.8344 31.1016 41.8852 31.0421 41.9484C30.9826 42.0116 30.9362 42.0859 30.9054 42.1671C30.8747 42.2483 30.8604 42.3348 30.8632 42.4215C30.866 42.5083 30.8859 42.5936 30.9218 42.6727C30.9577 42.7517 31.0088 42.8229 31.0723 42.8821C31.1357 42.9414 31.2103 42.9875 31.2916 43.0178C31.373 43.0482 31.4595 43.0622 31.5463 43.059C31.633 43.0558 31.7183 43.0356 31.7972 42.9993C32.2374 42.7995 32.671 42.5856 33.0974 42.358C33.2516 42.2756 33.3668 42.1354 33.4176 41.9681C33.4684 41.8008 33.4506 41.6202 33.3682 41.466ZM41.9099 11.0947C41.6642 10.6778 41.4051 10.269 41.1332 9.86871C41.0337 9.72705 40.8824 9.6302 40.7121 9.59907C40.5418 9.56794 40.366 9.60503 40.2228 9.70234C40.0796 9.79964 39.9805 9.94936 39.9467 10.1191C39.913 10.2889 39.9474 10.4652 40.0425 10.6098C40.2976 10.985 40.5436 11.3733 40.7738 11.7639C40.8177 11.8385 40.8759 11.9037 40.945 11.9559C41.0142 12.008 41.0929 12.046 41.1768 12.0676C41.2606 12.0893 41.3479 12.0942 41.4336 12.0822C41.5194 12.0701 41.6019 12.0412 41.6765 11.9972C41.7511 11.9533 41.8163 11.8951 41.8684 11.826C41.9205 11.7568 41.9585 11.6781 41.9802 11.5943C42.0018 11.5105 42.0068 11.4232 41.9947 11.3375C41.9827 11.2518 41.9538 11.1693 41.9099 11.0947ZM44.3619 22.559C43.9972 22.5468 43.6935 22.8328 43.6817 23.1965C43.6669 23.6518 43.6377 24.1064 43.594 24.5598C43.5772 24.7338 43.6303 24.9074 43.7415 25.0423C43.8527 25.1772 44.0129 25.2625 44.187 25.2793C44.3611 25.2961 44.5347 25.243 44.6696 25.1319C44.8046 25.0207 44.8898 24.8605 44.9066 24.6865C44.9528 24.208 44.9841 23.7211 44.9997 23.2391C45.0053 23.0643 44.9413 22.8945 44.8217 22.767C44.7021 22.6394 44.5367 22.5646 44.3619 22.559ZM37.0741 38.7896C37.0183 38.7234 36.95 38.6688 36.8732 38.629C36.7963 38.5892 36.7123 38.5649 36.6261 38.5575C36.5398 38.5501 36.4529 38.5597 36.3704 38.5859C36.2878 38.6121 36.2113 38.6543 36.145 38.71C35.7965 39.0033 35.4388 39.2853 35.0723 39.5558C34.9606 39.6382 34.8777 39.7538 34.8356 39.8861C34.7934 40.0184 34.7941 40.1606 34.8376 40.2925C34.881 40.4244 34.965 40.5392 35.0776 40.6205C35.1902 40.7018 35.3255 40.7455 35.4644 40.7454C35.6052 40.7455 35.7423 40.7003 35.8554 40.6165C36.2446 40.3294 36.6244 40.0299 36.9944 39.7185C37.0607 39.6627 37.1153 39.5945 37.1551 39.5176C37.195 39.4408 37.2193 39.3568 37.2267 39.2705C37.2341 39.1843 37.2244 39.0974 37.1982 39.0149C37.172 38.9324 37.1299 38.8559 37.0741 38.7896Z" fill="#FAFAFA"/>
<path d="M36.6912 20.8204C35.1036 18.7803 32.9952 17.0873 30.5939 15.9246C28.1171 14.7251 25.3203 14.0911 22.5059 14.0911C19.6916 14.0911 16.8947 14.725 14.4178 15.9246C12.0166 17.0873 9.90815 18.7804 8.32054 20.8205C7.56299 21.7938 7.56299 23.2067 8.32054 24.1801C9.90815 26.2201 12.0165 27.9132 14.4178 29.0761C16.8946 30.2755 19.6915 30.9095 22.5059 30.9095C25.3203 30.9095 28.1171 30.2756 30.5939 29.0761C32.9951 27.9133 35.1036 26.2202 36.6912 24.1801C37.4487 23.2068 37.4487 21.7938 36.6912 20.8204ZM35.6503 23.3705C32.6192 27.2656 27.7052 29.5911 22.5058 29.5911C17.3064 29.5911 12.3926 27.2657 9.36133 23.3705C8.97522 22.8743 8.97522 22.1261 9.36133 21.63C12.3925 17.7348 17.3064 15.4093 22.5058 15.4093C27.7052 15.4093 32.6191 17.7348 35.6503 21.6301C36.0365 22.1261 36.0365 22.8743 35.6503 23.3705Z" fill="#FAFAFA"/>
<path d="M22.5059 16.9092C19.4222 16.9092 16.9134 19.4173 16.9134 22.5003C16.9134 25.5832 19.4221 28.0913 22.5059 28.0913C25.5896 28.0913 28.0983 25.5832 28.0983 22.5003C28.0983 19.4173 25.5895 16.9092 22.5059 16.9092ZM22.5059 26.7729C20.1494 26.7729 18.2322 24.8562 18.2322 22.5003C18.2322 20.1443 20.1494 18.2276 22.5059 18.2276C24.8623 18.2276 26.7795 20.1443 26.7795 22.5003C26.7795 24.8562 24.8623 26.7729 22.5059 26.7729Z" fill="#FAFAFA"/>
<path d="M24.62 21.841C24.4452 21.841 24.2775 21.9104 24.1538 22.034C24.0302 22.1577 23.9607 22.3253 23.9607 22.5002C23.9607 23.3022 23.3081 23.9546 22.5059 23.9546C21.7037 23.9546 21.0511 23.3022 21.0511 22.5002C21.0511 21.6982 21.7037 21.0457 22.5059 21.0457C22.6808 21.0457 22.8485 20.9763 22.9722 20.8527C23.0958 20.7291 23.1653 20.5614 23.1653 20.3866C23.1653 20.2117 23.0958 20.0441 22.9722 19.9205C22.8485 19.7968 22.6808 19.7274 22.5059 19.7274C20.9766 19.7274 19.7325 20.9712 19.7325 22.5002C19.7325 24.0291 20.9766 25.2729 22.5059 25.2729C24.0352 25.2729 25.2794 24.0291 25.2794 22.5002C25.2794 22.3253 25.2099 22.1577 25.0863 22.034C24.9626 21.9104 24.7949 21.841 24.62 21.841ZM22.5058 7.75C22.331 7.75 22.1633 7.81945 22.0396 7.94307C21.916 8.06669 21.8465 8.23435 21.8465 8.40918V11.9319C21.8465 12.1067 21.916 12.2744 22.0396 12.398C22.1633 12.5217 22.331 12.5911 22.5058 12.5911C22.6807 12.5911 22.8484 12.5217 22.9721 12.398C23.0957 12.2744 23.1652 12.1067 23.1652 11.9319V8.40918C23.1652 8.23435 23.0957 8.06669 22.9721 7.94307C22.8484 7.81945 22.6807 7.75 22.5058 7.75ZM17.5316 12.3148L16.7379 10.9042C16.696 10.8277 16.6394 10.7603 16.5712 10.7058C16.5031 10.6514 16.4249 10.611 16.341 10.587C16.2571 10.563 16.1693 10.5559 16.0827 10.566C15.9961 10.5762 15.9123 10.6034 15.8363 10.6462C15.7603 10.6889 15.6935 10.7463 15.6398 10.8151C15.5861 10.8838 15.5466 10.9625 15.5236 11.0466C15.5006 11.1307 15.4944 11.2186 15.5056 11.3051C15.5168 11.3916 15.545 11.475 15.5886 11.5505L16.3823 12.961C16.4247 13.0365 16.4816 13.1029 16.5497 13.1564C16.6178 13.2099 16.6957 13.2494 16.7791 13.2727C16.8625 13.2961 16.9497 13.3028 17.0356 13.2924C17.1216 13.2821 17.2047 13.2549 17.2801 13.2124C17.4325 13.1267 17.5446 12.984 17.5918 12.8156C17.6389 12.6473 17.6173 12.4671 17.5316 12.3148ZM29.1716 10.6529C29.0962 10.6104 29.0131 10.5832 28.9271 10.5729C28.8411 10.5625 28.754 10.5692 28.6706 10.5926C28.5872 10.6159 28.5093 10.6555 28.4412 10.7089C28.3731 10.7624 28.3162 10.8288 28.2738 10.9042L27.4801 12.3148C27.4376 12.3902 27.4105 12.4733 27.4001 12.5592C27.3898 12.6452 27.3965 12.7323 27.4198 12.8157C27.4432 12.899 27.4827 12.9769 27.5362 13.045C27.5897 13.1131 27.6561 13.17 27.7315 13.2124C27.807 13.2549 27.8901 13.2821 27.976 13.2924C28.062 13.3028 28.1492 13.2961 28.2326 13.2727C28.3159 13.2494 28.3939 13.2099 28.462 13.1564C28.5301 13.1029 28.587 13.0365 28.6294 12.961L29.4231 11.5505C29.4655 11.475 29.4927 11.392 29.503 11.306C29.5134 11.2201 29.5067 11.133 29.4833 11.0496C29.46 10.9662 29.4204 10.8883 29.3669 10.8202C29.3135 10.7522 29.2471 10.6953 29.1716 10.6529ZM22.5058 32.4108C22.331 32.4108 22.1633 32.4802 22.0396 32.6039C21.916 32.7275 21.8465 32.8951 21.8465 33.07V36.5912C21.8465 36.766 21.916 36.9337 22.0396 37.0573C22.1633 37.1809 22.331 37.2504 22.5058 37.2504C22.6807 37.2504 22.8484 37.1809 22.9721 37.0573C23.0957 36.9337 23.1652 36.766 23.1652 36.5912V33.07C23.1652 32.8951 23.0957 32.7275 22.9721 32.6039C22.8484 32.4802 22.6807 32.4108 22.5058 32.4108ZM29.4231 33.4513L28.6294 32.0408C28.4509 31.7235 28.0487 31.6107 27.7315 31.7894C27.5791 31.8751 27.467 32.0178 27.4199 32.1862C27.3727 32.3545 27.3944 32.5347 27.4801 32.687L28.2738 34.0976C28.3162 34.173 28.3731 34.2394 28.4412 34.2929C28.5093 34.3464 28.5872 34.3859 28.6706 34.4093C28.754 34.4326 28.8411 34.4393 28.9271 34.4289C29.0131 34.4186 29.0962 34.3914 29.1716 34.349C29.324 34.2632 29.4361 34.1205 29.4833 33.9522C29.5304 33.7839 29.5088 33.6037 29.4231 33.4513ZM17.2802 31.7894C17.1278 31.7037 16.9476 31.6821 16.7792 31.7292C16.6109 31.7763 16.4681 31.8884 16.3824 32.0408L15.5887 33.4513C15.5463 33.5268 15.5191 33.6098 15.5088 33.6958C15.4984 33.7817 15.5051 33.8688 15.5285 33.9522C15.5518 34.0356 15.5913 34.1135 15.6448 34.1816C15.6983 34.2496 15.7647 34.3065 15.8401 34.349C15.9156 34.3914 15.9987 34.4186 16.0846 34.429C16.1706 34.4394 16.2578 34.4327 16.3412 34.4093C16.4246 34.386 16.5025 34.3464 16.5706 34.2929C16.6387 34.2395 16.6956 34.1731 16.738 34.0976L17.5317 32.687C17.6174 32.5347 17.639 32.3545 17.5919 32.1862C17.5447 32.0178 17.4326 31.8751 17.2802 31.7894Z" fill="#FAFAFA"/>
</svg>
